# xmcd
# Track frame offsets:
# 150
# 19812
# 37602
# 55552
# 74570
# 93387
# 104235
# 122072
# 137375
# 155930
# 169332
#
# Disc length: 2530 seconds
# Revision: 0
# Processed by: cddbd v1.4PL0 Copyright (c) Steve Scherf et al.
# Submitted via: VisiTrax 2.9.5.181 - For more info visit www.synapsa.com
#
DISCID=9509e00b
DTITLE=Liller - Du og jeg
DYEAR=1986
DGENRE=
TTITLE0=Den Danske sommer
TTITLE1=I det lille rige
TTITLE2=Hvorfor er lykken så lunefuld
TTITLE3=Når bare du vil vente
TTITLE4=Lille du
TTITLE5=Øjnene er lyseblå
TTITLE6=Mens jeg har dig endnu lille mor
TTITLE7=Alle fugle fløjter en sang om kærlighed
TTITLE8=Mariehønen
TTITLE9=Du og jeg vil altid være venner
TTITLE10=Her er der en lille pige
EXTD=
EXTT0=
EXTT1=
EXTT2=
EXTT3=
EXTT4=
EXTT5=
EXTT6=
EXTT7=
EXTT8=
EXTT9=
EXTT10=
PLAYORDER=
